<svg xmlns="http://www.w3.org/2000/svg" viewBox="0 0 48 48" fill="none">
  <circle cx="24" cy="24" r="22" fill="#5865F2"/>
  <path d="M32.2 16.5a20.3 20.3 0 00-5-1.5 14.5 14.5 0 00-.7 1.4 18.8 18.8 0 00-5.6 0 13.3 13.3 0 00-.7-1.4 20.2 20.2 0 00-5 1.5C11.1 22.6 10.2 28.5 10.7 34.3a20.4 20.4 0 006.2 3.1 15 15 0 001.3-2.1 13.3 13.3 0 01-2.1-1 12 12 0 00.5-.4 14.5 14.5 0 0012.4 0l.5.4a13.3 13.3 0 01-2.1 1 15 15 0 001.3 2.1 20.3 20.3 0 006.2-3.1c.5-6.6-.9-12.4-3.7-17.8zM19.3 30.9c-1.5 0-2.8-1.4-2.8-3.1s1.2-3.1 2.8-3.1 2.8 1.4 2.8 3.1-1.3 3.1-2.8 3.1zm9.4 0c-1.5 0-2.8-1.4-2.8-3.1s1.2-3.1 2.8-3.1 2.8 1.4 2.8 3.1-1.2 3.1-2.8 3.1z" fill="#fff"/>
</svg>
