<svg xmlns="http://www.w3.org/2000/svg" viewBox="0 0 24 24" fill="none">
  <rect width="24" height="24" rx="4" fill="#1a1a2e"/>
  <path d="M6 8.5C6 7.12 7.12 6 8.5 6h2C11.88 6 13 7.12 13 8.5v2c0 1.38-1.12 2.5-2.5 2.5h-2C7.12 13 6 11.88 6 10.5v-2zm1.5 0v2c0 .55.45 1 1 1h2c.55 0 1-.45 1-1v-2c0-.55-.45-1-1-1h-2c-.55 0-1 .45-1 1z" fill="#6366f1"/>
  <path d="M14 8.5C14 7.12 15.12 6 16.5 6h0c.83 0 1.5.67 1.5 1.5v0c0 .83-.67 1.5-1.5 1.5H15v1.5h1.5c.55 0 1.04.23 1.4.59l1.6 1.91c.31.37.5.84.5 1.34V15c0 .83-.67 1.5-1.5 1.5h0c-.83 0-1.5-.67-1.5-1.5v-.5l-1-1.5H15v3.5c0 .28-.22.5-.5.5h0c-.28 0-.5-.22-.5-.5V8.5z" fill="#a78bfa"/>
</svg>
